<svg width="171" height="172" viewBox="0 0 171 172" fill="none" xmlns="http://www.w3.org/2000/svg">
<path d="M12.4626 85.9979C12.4626 114.974 29.3013 140.015 53.7186 151.881L18.8003 56.2058C14.7386 65.31 12.4626 75.3851 12.4626 85.9979ZM135.082 82.3038C135.082 73.2567 131.832 66.9913 129.045 62.1146C125.334 56.0846 121.856 50.9781 121.856 44.9481C121.856 38.2188 126.96 31.9548 134.148 31.9548C134.473 31.9548 134.781 31.9952 135.097 32.0133C122.073 20.0814 104.722 12.7963 85.6646 12.7963C60.0911 12.7963 37.5917 25.9178 24.5028 45.7922C26.2202 45.8437 27.8387 45.88 29.2135 45.88C36.8702 45.88 48.7223 44.9509 48.7223 44.9509C52.6684 44.7183 53.1336 50.5143 49.1917 50.9809C49.1917 50.9809 45.2262 51.4475 40.8135 51.6787L67.4706 130.972L83.4903 82.9251L72.0853 51.676C68.1434 51.4447 64.4091 50.9781 64.4091 50.9781C60.4644 50.7469 60.9268 44.7155 64.8715 44.9481C64.8715 44.9481 76.9604 45.8772 84.1533 45.8772C91.8086 45.8772 103.662 44.9481 103.662 44.9481C107.611 44.7155 108.075 50.5115 104.132 50.9781C104.132 50.9781 100.158 51.4447 95.7533 51.676L122.207 130.368L129.509 105.968C132.673 95.8432 135.082 88.5707 135.082 82.3038ZM86.9488 92.4012L64.9857 156.224C71.5434 158.152 78.4786 159.206 85.6646 159.206C94.1891 159.206 102.364 157.733 109.973 155.057C109.777 154.743 109.599 154.411 109.452 154.048L86.9488 92.4012ZM149.896 50.8764C150.211 53.2082 150.389 55.7113 150.389 58.4038C150.389 65.8324 149.002 74.183 144.823 84.6245L122.463 149.275C144.226 136.584 158.864 113.006 158.864 85.9993C158.865 73.272 155.614 61.3039 149.896 50.8764ZM85.6646 0.666656C38.6141 0.666656 0.333328 38.9459 0.333328 85.9979C0.333328 133.055 38.6141 171.333 85.6646 171.333C132.714 171.333 171 133.055 171 85.9979C170.999 38.9459 132.714 0.666656 85.6646 0.666656ZM85.6646 167.422C40.7717 167.422 4.24596 130.895 4.24596 85.9979C4.24596 41.1036 40.7703 4.57941 85.6646 4.57941C130.556 4.57941 167.079 41.1036 167.079 85.9979C167.079 130.895 130.556 167.422 85.6646 167.422Z" fill="#117AC9"/>
</svg>
