<svg width="512" height="512" viewBox="0 0 512 512" fill="none" xmlns="http://www.w3.org/2000/svg">
<path fill-rule="evenodd" clip-rule="evenodd" d="M109.946 261.852C109.946 259.769 108.788 257.801 106.937 256.76L57.8662 228.521C57.0561 228.058 56.1302 227.827 55.2043 227.711H54.7414C53.8156 227.711 52.8897 228.058 52.0796 228.521L3.00904 256.76C1.15732 257.801 0 259.769 0 261.852L0.115732 337.772C0.115732 338.814 0.694394 339.856 1.62025 340.319C2.54611 340.897 3.70344 340.897 4.51356 340.319L33.6781 323.653C35.5298 322.611 36.6872 320.644 36.6872 318.561V283.031C36.6872 280.948 37.8445 278.98 39.6962 277.939L52.0796 270.763C53.0054 270.185 54.047 269.953 55.0886 269.953C56.1302 269.953 57.1718 270.185 57.9819 270.763L70.3653 277.939C72.217 278.98 73.3743 280.948 73.3743 283.031V318.561C73.3743 320.644 74.5317 322.611 76.3834 323.653L105.548 340.319C106.474 340.897 107.631 340.897 108.557 340.319C109.483 339.856 110.062 338.814 110.062 337.772L109.946 261.852V261.852V261.852Z" fill="#333333"/>
<path fill-rule="evenodd" clip-rule="evenodd" d="M345.807 157.347C344.881 156.884 343.724 156.884 342.914 157.347C341.988 157.926 341.409 158.852 341.409 159.893V235.119C341.409 235.814 341.062 236.508 340.368 236.971C339.674 237.318 338.979 237.318 338.285 236.971L326.017 229.911C324.165 228.87 321.966 228.87 320.115 229.911L271.044 258.266C269.192 259.307 268.035 261.275 268.035 263.358V319.951C268.035 322.034 269.192 324.002 271.044 325.043L320.115 353.398C321.966 354.439 324.165 354.439 326.017 353.398L375.088 325.043C376.939 324.002 378.097 322.034 378.097 319.951V178.873C378.097 176.675 376.939 174.707 375.088 173.665L345.807 157.347V157.347V157.347ZM341.293 301.318C341.293 301.897 341.062 302.36 340.599 302.591L323.818 312.313C323.355 312.544 322.776 312.544 322.313 312.313L305.532 302.591C305.069 302.36 304.838 301.781 304.838 301.318V281.875C304.838 281.297 305.069 280.834 305.532 280.602L322.313 270.881C322.776 270.649 323.355 270.649 323.818 270.881L340.599 280.602C341.062 280.834 341.293 281.412 341.293 281.875V301.318V301.318V301.318Z" fill="#333333"/>
<path fill-rule="evenodd" clip-rule="evenodd" d="M509.107 281.414C510.958 280.372 512 278.405 512 276.322V262.55C512 260.466 510.843 258.499 509.107 257.457L460.383 229.219C458.532 228.177 456.333 228.177 454.481 229.219L405.41 257.573C403.559 258.615 402.401 260.582 402.401 262.665V319.258C402.401 321.342 403.559 323.309 405.41 324.351L454.134 352.126C455.985 353.168 458.184 353.168 459.92 352.126L489.432 335.692C490.358 335.23 490.937 334.188 490.937 333.146C490.937 332.105 490.358 331.063 489.432 330.6L440.13 302.246C439.204 301.667 438.626 300.741 438.626 299.7V281.993C438.626 280.951 439.204 279.909 440.13 279.447L455.523 270.651C456.448 270.072 457.606 270.072 458.532 270.651L473.924 279.447C474.85 280.025 475.429 280.951 475.429 281.993V295.881C475.429 296.922 476.007 297.964 476.933 298.427C477.859 299.005 479.016 299.005 479.942 298.427L509.107 281.414V281.414V281.414Z" fill="#333333"/>
<path fill-rule="evenodd" clip-rule="evenodd" d="M456.68 278.752C457.027 278.52 457.49 278.52 457.837 278.752L467.211 284.191C467.558 284.423 467.79 284.77 467.79 285.233V296.112C467.79 296.575 467.558 296.922 467.211 297.153L457.837 302.593C457.49 302.824 457.027 302.824 456.68 302.593L447.305 297.153C446.958 296.922 446.727 296.575 446.727 296.112V285.233C446.727 284.77 446.958 284.423 447.305 284.191L456.68 278.752V278.752V278.752Z" fill="#539E43"/>
<path fill-rule="evenodd" clip-rule="evenodd" d="M191.999 229.449C190.148 228.408 187.949 228.408 186.097 229.449L137.374 257.572C135.522 258.614 134.48 260.581 134.48 262.664V319.026C134.48 321.109 135.638 323.077 137.374 324.118L186.097 352.241C187.949 353.283 190.148 353.283 191.999 352.241L240.723 324.118C242.575 323.077 243.616 321.109 243.616 319.026V262.664C243.616 260.581 242.459 258.614 240.723 257.572L191.999 229.449V229.449V229.449Z" fill="white"/>
<path fill-rule="evenodd" clip-rule="evenodd" d="M191.999 229.449C190.148 228.408 187.949 228.408 186.097 229.449L137.374 257.572C135.522 258.614 134.48 260.581 134.48 262.664V319.026C134.48 321.109 135.638 323.077 137.374 324.118L186.097 352.241C187.949 353.283 190.148 353.283 191.999 352.241L240.723 324.118C242.575 323.077 243.616 321.109 243.616 319.026V262.664C243.616 260.581 242.459 258.614 240.723 257.572L191.999 229.449V229.449V229.449Z" fill="url(#paint0_linear_1088_1918)"/>
<mask id="mask0_1088_1918" style="mask-type:luminance" maskUnits="userSpaceOnUse" x="134" y="228" width="110" height="126">
<path fill-rule="evenodd" clip-rule="evenodd" d="M191.999 229.449C190.148 228.408 187.949 228.408 186.097 229.449L137.374 257.572C135.522 258.614 134.48 260.581 134.48 262.664V319.026C134.48 321.109 135.638 323.077 137.374 324.118L186.097 352.241C187.949 353.283 190.148 353.283 191.999 352.241L240.723 324.118C242.575 323.077 243.616 321.109 243.616 319.026V262.664C243.616 260.581 242.459 258.614 240.723 257.572L191.999 229.449V229.449V229.449Z" fill="white"/>
</mask>
<g mask="url(#mask0_1088_1918)">
<path fill-rule="evenodd" clip-rule="evenodd" d="M240.839 257.573L191.884 229.45C191.421 229.218 190.843 228.987 190.38 228.871L135.522 322.846C135.985 323.424 136.564 323.887 137.143 324.235L186.098 352.358C187.486 353.168 189.107 353.399 190.611 352.936L242.112 258.73C241.765 258.267 241.302 257.92 240.839 257.573V257.573V257.573Z" fill="url(#paint1_linear_1088_1918)"/>
</g>
<mask id="mask1_1088_1918" style="mask-type:luminance" maskUnits="userSpaceOnUse" x="134" y="228" width="110" height="126">
<path fill-rule="evenodd" clip-rule="evenodd" d="M191.999 229.449C190.148 228.408 187.949 228.408 186.097 229.449L137.374 257.572C135.522 258.614 134.48 260.581 134.48 262.664V319.026C134.48 321.109 135.638 323.077 137.374 324.118L186.097 352.241C187.949 353.283 190.148 353.283 191.999 352.241L240.723 324.118C242.575 323.077 243.616 321.109 243.616 319.026V262.664C243.616 260.581 242.459 258.614 240.723 257.572L191.999 229.449V229.449V229.449Z" fill="white"/>
</mask>
<g mask="url(#mask1_1088_1918)">
<path fill-rule="evenodd" clip-rule="evenodd" d="M240.955 324.117C242.343 323.307 243.385 321.918 243.848 320.414L190.148 228.754C188.759 228.522 187.255 228.638 185.982 229.448L137.374 257.455L189.801 353.05C190.495 352.935 191.305 352.703 192 352.356L240.955 324.117V324.117V324.117Z" fill="url(#paint2_linear_1088_1918)"/>
<path fill-rule="evenodd" clip-rule="evenodd" d="M240.954 324.12L192.115 352.243C191.421 352.59 190.726 352.822 189.916 352.937L190.842 354.673L245.005 323.31V322.615L243.616 320.301C243.384 321.921 242.343 323.31 240.954 324.12V324.12V324.12Z" fill="url(#paint3_linear_1088_1918)"/>
<path fill-rule="evenodd" clip-rule="evenodd" d="M240.954 324.12L192.115 352.243C191.421 352.59 190.726 352.822 189.916 352.937L190.842 354.673L245.005 323.31V322.615L243.616 320.301C243.384 321.921 242.343 323.31 240.954 324.12V324.12V324.12Z" fill="url(#paint4_linear_1088_1918)"/>
</g>
<defs>
<linearGradient id="paint0_linear_1088_1918" x1="178.525" y1="234.606" x2="126.661" y2="297.37" gradientUnits="userSpaceOnUse">
<stop stop-color="#41873F"/>
<stop offset="0.3288" stop-color="#418B3D"/>
<stop offset="0.6352" stop-color="#419637"/>
<stop offset="0.9319" stop-color="#3FA92D"/>
<stop offset="1" stop-color="#3FAE2A"/>
</linearGradient>
<linearGradient id="paint1_linear_1088_1918" x1="210.445" y1="367.821" x2="340.179" y2="315.992" gradientUnits="userSpaceOnUse">
<stop offset="0.1376" stop-color="#41873F"/>
<stop offset="0.4032" stop-color="#54A044"/>
<stop offset="0.7136" stop-color="#66B848"/>
<stop offset="0.9081" stop-color="#6CC04A"/>
</linearGradient>
<linearGradient id="paint2_linear_1088_1918" x1="132.701" y1="356.709" x2="245.444" y2="356.709" gradientUnits="userSpaceOnUse">
<stop offset="0.0919165" stop-color="#6CC04A"/>
<stop offset="0.2864" stop-color="#66B848"/>
<stop offset="0.5968" stop-color="#54A044"/>
<stop offset="0.8624" stop-color="#41873F"/>
</linearGradient>
<linearGradient id="paint3_linear_1088_1918" x1="132.701" y1="372.755" x2="245.444" y2="372.755" gradientUnits="userSpaceOnUse">
<stop offset="0.0919165" stop-color="#6CC04A"/>
<stop offset="0.2864" stop-color="#66B848"/>
<stop offset="0.5968" stop-color="#54A044"/>
<stop offset="0.8624" stop-color="#41873F"/>
</linearGradient>
<linearGradient id="paint4_linear_1088_1918" x1="121.081" y1="239.306" x2="110.451" y2="382.374" gradientUnits="userSpaceOnUse">
<stop stop-color="#41873F"/>
<stop offset="0.3288" stop-color="#418B3D"/>
<stop offset="0.6352" stop-color="#419637"/>
<stop offset="0.9319" stop-color="#3FA92D"/>
<stop offset="1" stop-color="#3FAE2A"/>
</linearGradient>
</defs>
</svg>
