<svg width="295" height="323" viewBox="0 0 295 323" fill="none" xmlns="http://www.w3.org/2000/svg">
<path d="M186.249 150.727L121.588 171.841L65.3345 196.668L49.5967 200.823C45.5886 204.636 41.386 208.497 36.8406 212.407C31.8555 216.707 27.2126 220.618 23.6442 223.452C19.6857 226.58 13.8207 232.445 10.8396 236.159C6.39181 241.73 2.87301 247.644 1.3578 252.19C-1.33049 260.401 -0.0102426 268.709 5.17026 276.383C11.8171 286.157 25.0622 296.127 40.5059 302.921C48.3752 306.392 61.6199 310.839 71.5899 313.331C88.1578 317.535 120.22 322.08 137.863 322.765C141.43 322.911 146.22 322.911 146.415 322.765C146.807 322.519 149.544 317.29 152.721 310.791C163.571 288.65 171.391 267.878 175.642 250.137C178.184 239.386 180.187 225.065 181.506 208.107C181.849 203.366 181.995 187.481 181.702 182.105C181.262 173.308 180.48 166.173 179.259 159.183C179.063 158.157 179.014 157.228 179.112 157.179C179.307 157.033 179.893 156.837 187.86 154.54L186.248 150.728V150.727H186.249V150.727ZM171.489 159.378C172.075 159.378 173.639 174.382 174.03 183.864C174.128 185.868 174.078 187.187 173.981 187.187C173.59 187.187 165.721 182.545 160.102 179.026C155.214 175.947 145.928 169.788 144.462 168.615C143.972 168.273 144.021 168.225 148.029 166.856C154.822 164.558 170.951 159.378 171.489 159.378ZM138.548 170.228C138.988 170.228 140.111 170.863 142.799 172.525C152.867 178.83 166.553 186.454 172.417 188.996C174.225 189.778 174.42 189.484 170.267 192.32C161.372 198.38 150.276 204.342 136.689 210.354C134.295 211.429 132.291 212.26 132.243 212.26C132.145 212.26 132.438 211.038 132.828 209.572C136.103 197.401 137.961 185.085 138.059 175.213C138.108 170.325 138.108 170.325 138.548 170.179C138.449 170.228 138.498 170.228 138.548 170.228ZM131.754 172.818C132.047 173.111 131.852 184.059 131.46 187.04C130.581 194.176 129.212 200.823 126.965 208.301C126.427 210.108 125.938 211.624 125.841 211.722C125.644 211.966 118.949 205.417 116.749 202.876C112.937 198.477 109.956 194.078 107.757 189.777C106.633 187.578 104.874 183.277 105.02 183.131C105.802 182.593 131.559 172.623 131.754 172.818ZM99.7901 185.379C99.8388 185.379 99.8875 185.379 99.9371 185.427C100.034 185.525 100.377 186.307 100.67 187.187C102.234 191.439 105.752 197.695 108.783 201.703C112.107 206.102 116.457 210.793 120.073 213.872C121.246 214.85 122.321 215.778 122.467 215.925C122.761 216.218 122.859 216.169 114.892 219.2C105.656 222.718 95.5869 226.237 84.0523 229.951C81.297 230.84 78.5441 231.736 75.7938 232.64C75.3532 232.787 75.5002 232.542 76.7708 230.539C82.4889 221.594 91.1882 204.049 96.0759 191.634C96.9069 189.484 97.7376 187.334 97.8846 186.845C98.0802 186.16 98.324 185.916 98.9592 185.574C99.3013 185.477 99.6439 185.379 99.7901 185.379ZM90.0162 189.435C90.1625 189.533 87.6698 194.762 85.2261 199.552C80.485 208.789 75.3045 217.88 68.3645 228.926C67.1917 230.831 66.0679 232.591 65.921 232.787C65.6769 233.129 65.5786 233.031 64.7968 231.516C63.1351 228.241 61.7662 224.038 61.0332 220.177C60.2999 216.364 60.4468 209.718 61.278 205.613C61.9127 202.583 61.8644 202.632 63.3305 201.898C69.5863 198.722 89.8206 189.24 90.0162 189.435ZM174.324 192.857V194.909C174.324 205.808 173.151 220.764 171.439 231.663C171.146 233.569 170.901 235.132 170.853 235.182C170.853 235.182 169.436 234.791 167.774 234.302C160.443 232.005 152.477 228.632 145.292 224.674C140.55 222.084 133.66 217.831 133.856 217.635C133.904 217.587 135.957 216.512 138.351 215.241C147.932 210.256 157.119 204.88 165.086 199.553C168.067 197.549 172.563 194.323 173.541 193.443L174.324 192.857ZM53.1155 207.323C53.3109 207.323 53.262 207.714 52.9688 209.473C52.7732 210.744 52.5291 213.09 52.432 214.702C52.04 221.838 53.2138 227.117 56.7326 234.35C57.7101 236.354 58.4926 238.016 58.443 238.064C58.1006 238.358 25.7467 247.84 15.5802 250.625C12.5502 251.456 9.91152 252.189 9.71499 252.238C9.37355 252.336 9.32441 252.287 9.47091 251.455C10.5949 244.272 16.069 234.888 23.6931 226.97C28.7762 221.692 32.833 218.613 39.773 214.653C44.7581 211.819 52.4313 207.568 53.0177 207.372C53.0182 207.323 53.0668 207.323 53.1155 207.323ZM129.359 220.959C129.408 220.91 130.581 221.546 131.998 222.376C142.457 228.437 157.022 234.058 169.435 236.941L170.56 237.186L168.995 238.064C162.496 241.681 141.137 250.576 119.291 258.739C116.114 259.911 112.986 261.084 112.399 261.329C111.813 261.573 111.275 261.72 111.275 261.671C111.275 261.621 112.155 259.911 113.278 257.81C119.388 246.373 125.546 232.444 128.674 222.767C129.066 221.839 129.31 221.008 129.359 220.959ZM121.588 223.5C121.638 223.55 121.246 224.576 120.757 225.749C116.506 236.061 110.933 247.303 103.798 259.912C101.99 263.138 100.475 265.728 100.425 265.728C100.377 265.728 98.9102 264.848 97.151 263.773C86.789 257.419 77.6011 249.599 71.5901 242.024L70.71 240.949L75.1571 239.727C91.0904 235.377 104.628 230.685 118.069 224.919C119.975 224.136 121.54 223.5 121.588 223.5ZM169.876 240.362C169.925 241.486 167.432 251.554 165.379 258.836C163.669 264.945 162.202 269.735 159.514 278.19C158.341 281.905 157.316 284.983 157.266 284.983C157.217 284.983 156.924 284.935 156.631 284.838C142.116 282.198 129.115 278.532 116.896 273.645C113.475 272.276 108.588 270.077 108.294 269.833C108.197 269.734 111.13 268.366 114.844 266.753C137.082 257.027 160.15 245.982 168.067 241.242C168.996 240.655 169.729 240.362 169.876 240.362ZM58.3943 244.174C58.4921 244.272 52.285 253.216 43.585 265.386C40.5551 269.638 37.0363 274.623 35.7169 276.48C34.3971 278.337 32.3935 281.27 31.2693 283.029L29.2157 286.206L27.0162 284.349C24.4258 282.198 19.93 277.604 17.9261 275.063C13.7226 269.834 10.8885 264.311 9.76435 259.277C9.2266 256.931 9.22659 255.757 9.71476 255.611C10.4477 255.416 23.4972 252.337 35.7165 249.501C42.51 247.938 50.3781 246.081 53.2129 245.397C56.0479 244.711 58.3456 244.174 58.3943 244.174ZM64.6499 246.569L66.2133 248.329C73.252 256.197 80.4364 262.014 89.1359 267.096C90.7002 267.976 91.8729 268.758 91.7746 268.808C91.4334 269.052 61.5705 279.656 47.7394 284.446C39.9689 287.183 33.5659 289.382 33.5177 289.382C33.469 289.382 33.0288 289.09 32.5393 288.747L31.6601 288.112L33.0773 286.059C37.6712 279.412 43.4392 272.13 55.9997 256.979L64.6499 246.569ZM103.652 274.476C103.7 274.427 105.851 275.209 108.489 276.187C114.844 278.582 119.877 280.097 126.622 281.807C134.931 283.909 146.954 285.962 154.041 286.548C155.116 286.646 155.703 286.744 155.507 286.891C155.164 287.086 147.981 289.481 142.702 291.143C134.295 293.781 108.637 301.357 87.7187 307.369C83.8576 308.493 80.5339 309.421 80.3385 309.47C79.8504 309.568 78.2369 309.128 78.2369 308.932C78.2369 308.835 79.4098 307.32 80.8274 305.658C87.8648 297.252 94.8544 287.868 100.67 278.973C102.283 276.528 103.652 274.525 103.652 274.476ZM95.0493 274.721C95.098 274.77 91.6283 280.341 85.5686 289.92C82.9777 293.977 80.094 298.571 79.0674 300.184C78.09 301.748 76.6239 304.192 75.7934 305.56L74.3758 308.053L73.6428 307.857C71.8829 307.368 59.518 303.018 56.2433 301.699C52.1865 300.086 47.9835 298.131 44.8553 296.469C40.9459 294.368 36.0588 291.239 36.4494 291.142C36.547 291.094 43.2429 289.284 51.3067 287.086C72.7138 281.269 84.5898 277.897 92.3615 275.454C93.7791 275.014 95.0006 274.671 95.0493 274.721ZM155.898 288.991H155.946C156.142 289.481 148.225 311.474 145.34 318.414C144.706 319.977 144.462 320.369 144.119 320.319C143.288 320.271 131.803 318.658 124.813 317.632C112.644 315.775 92.2148 312.206 87.0834 311.034L85.9105 310.79L93.1918 309.127C108.832 305.608 116.358 303.702 123.982 301.356C133.611 298.424 143.142 294.758 152.77 290.262C154.285 289.578 155.556 289.04 155.898 288.991Z" fill="#ADB2FF"/>
<path d="M119.586 0.00250326C118.511 -0.143315 101.16 6.11246 89.9681 10.6572C74.8656 16.816 63.1365 22.6812 55.9028 27.763C53.2152 29.67 49.8422 33.0418 49.3054 34.3612C49.11 34.85 49.0117 35.4364 49.0117 36.0229L55.5612 42.23L71.1516 47.2151L108.247 53.8621L150.669 61.1445L151.11 57.4789C150.963 57.4789 150.865 57.4303 150.72 57.4303L145.147 56.5502L144.023 54.5466C138.256 44.3805 131.902 31.7709 128.188 23.2668C125.305 16.6687 122.568 9.04506 121.052 3.57089C120.221 0.247486 120.124 0.0520856 119.587 0.00340427V0.00227629H119.586V0.00250326ZM118.803 2.49585H118.853C118.901 2.54408 119.097 3.91346 119.293 5.52536C120.123 12.3687 121.639 18.9657 124.034 26.1016C125.841 31.4779 125.841 31.1849 123.74 30.5491C118.755 29.1811 96.4199 25.32 80.2426 23.0718C77.6521 22.7295 75.4527 22.3876 75.4527 22.3389C75.2573 22.1435 87.1333 15.936 92.3629 13.4929C99.0586 10.4131 117.435 2.73993 118.803 2.49585ZM71.6887 24.3912L73.5956 25.0258C83.9561 28.5453 110.005 33.5306 124.375 34.7035C125.988 34.8502 127.357 34.9972 127.405 34.9972C127.453 35.0459 126.086 35.779 124.326 36.6095C117.386 40.0796 109.762 44.3318 104.483 47.6065C102.92 48.5836 101.502 49.3661 101.307 49.3661C101.111 49.3661 100.085 49.1704 99.0099 49.0237L97.055 48.73L92.1682 43.9401C83.5662 35.5832 76.8214 29.132 74.2309 26.6878L71.6887 24.3912ZM69.7344 25.9059L76.6255 34.5081C80.3884 39.2489 84.2007 43.8917 85.0323 44.9176C85.8624 45.9446 86.5471 46.7758 86.4984 46.8245C86.3027 46.971 76.5286 45.0645 71.3472 43.8921C66.02 42.6699 63.8208 42.0835 60.5463 41.0575L57.858 40.1775V39.4928C57.9067 36.218 62.0615 31.331 69.0991 26.3463L69.7344 25.9059ZM128.285 37.6359C128.481 37.6359 128.725 38.0756 129.311 39.3952C130.973 43.0605 136.154 52.9335 137.424 54.8393C137.816 55.4753 138.499 55.524 131.609 54.3998C115.041 51.7111 109.713 50.8324 109.713 50.7345C109.713 50.6859 110.202 50.3435 110.837 50.0012C115.969 47.1671 121.15 43.55 125.744 39.6888C126.868 38.7601 127.895 37.8804 128.09 37.7335C128.138 37.6359 128.237 37.5872 128.285 37.6359Z" fill="#BDC2FF"/>
<path d="M49.6512 33.6719C49.6512 33.6719 48.5766 35.3832 49.6028 37.9247C50.2388 39.4882 52.0957 41.394 54.1969 43.3493C54.1969 43.3493 75.9457 64.5604 78.5851 67.5911C90.6076 81.4709 95.8374 95.1557 96.3263 114.021C96.6195 126.142 94.3218 136.797 88.604 149.162C78.4381 171.351 56.9821 195.837 23.8945 223.011L28.7338 221.398C31.8616 219.052 36.1138 216.56 46.0838 211.086C69.103 198.475 95.0065 186.892 126.775 174.967C172.52 157.763 247.738 137.627 290.551 131.078L294.999 130.394L294.314 129.318C290.405 123.258 287.716 119.495 284.49 115.487C275.107 103.855 263.72 94.4228 249.79 86.6027C230.632 75.8998 205.852 67.5424 174.475 61.3353C168.562 60.1617 155.561 57.9138 145.004 56.301C122.62 52.8318 108.153 50.4365 92.2206 47.6995C86.5028 46.7216 77.9491 45.2558 72.2797 44.0342C69.3473 43.3982 63.7274 42.0789 59.3287 40.5639C55.8099 39.1947 50.7265 37.8262 49.6512 33.6719ZM62.2615 45.8909C62.3097 45.8427 63.0916 46.135 64.1186 46.4773C65.9757 47.112 68.3703 47.8454 71.2058 48.6279C73.3509 49.2179 75.5014 49.788 77.657 50.3383C80.5894 51.0709 83.0327 51.7554 83.0813 51.7554C83.4241 52.0978 88.3606 67.8829 90.0223 73.9435C90.6567 76.2412 91.1464 78.1957 91.0975 78.1957C91.0473 78.2453 90.5104 77.4139 89.8753 76.2899C84.1569 66.2217 75.1152 56.0071 64.6559 47.796C63.2881 46.8194 62.2615 45.9396 62.2615 45.8909ZM86.3074 52.5377C86.5519 52.5377 87.6272 52.6844 88.9461 52.9774C97.2548 54.8345 112.162 57.6693 121.692 59.2823C123.305 59.5264 124.576 59.8203 124.576 59.9174C124.576 60.0157 123.989 60.3571 123.255 60.7486C121.643 61.5791 115.143 65.4398 112.993 66.9064C107.567 70.523 102.68 74.4328 99.1611 77.9516C97.7439 79.3692 96.5215 80.5421 96.5215 80.5421C96.5215 80.5421 96.2291 79.7116 95.9837 78.6845C94.2253 71.891 90.5591 61.8228 87.2357 54.7365C86.698 53.6127 86.2578 52.5862 86.2578 52.4888C86.2578 52.5864 86.2578 52.5377 86.3074 52.5377ZM128.632 60.6019C128.925 60.6993 129.414 62.3612 130.391 66.0265C132.2 73.1137 133.031 81.0312 132.738 88.4111C132.639 90.4638 132.542 92.3696 132.444 92.6146L132.298 93.1028L129.756 92.2723C124.527 90.6106 116.023 88.1174 108.741 86.0652C104.586 84.941 101.214 83.9146 101.214 83.817C101.214 83.5234 107.275 77.4632 109.865 75.1664C114.8 70.816 128.192 60.455 128.632 60.6019ZM132.004 61.0901C132.151 60.9442 152.238 64.4135 161.378 66.1732C168.172 67.4926 178.044 69.5455 178.63 69.7903C178.923 69.8876 177.897 70.4741 174.622 71.9401C161.72 77.7567 152.14 82.9854 142.611 89.3397C140.118 91.0014 138.016 92.3696 137.967 92.3696C137.919 92.3696 137.87 90.9527 137.87 89.2419C137.87 79.9561 136.012 70.5721 132.59 62.6546C132.249 61.8726 131.955 61.1396 132.004 61.0901ZM183.957 71.3542C184.104 71.5007 183.468 75.4598 182.882 77.8053C181.123 85.0877 176.382 95.8896 170.567 106.055C169.539 107.863 168.611 109.329 168.513 109.378C168.416 109.427 167.096 108.693 165.581 107.814C159.912 104.49 153.46 101.363 146.422 98.4298C144.468 97.5993 142.757 96.9146 142.708 96.8177C142.365 96.524 158.103 86.1139 166.412 81.1287C173.01 77.1213 183.762 71.1583 183.957 71.3542ZM187.671 71.9404C188.112 71.9404 197.007 74.3844 201.649 75.7528C213.135 79.1743 226.33 84.0124 234.932 87.9223L238.5 89.5358L236.008 90.1217C214.993 94.9599 197.007 100.532 179.656 107.57C178.239 108.156 176.968 108.645 176.871 108.645C176.773 108.645 177.262 107.521 177.897 106.152C183.127 95.0581 186.499 83.4749 187.329 73.6018C187.379 72.6731 187.524 71.9404 187.671 71.9404ZM99.1124 92.2723C99.2587 92.1253 106.052 93.7386 109.718 94.764C115.289 96.3286 127.117 100.287 127.117 100.581C127.117 100.629 125.797 101.753 124.234 103.122C117.831 108.45 111.673 114.069 104.292 121.205C102.093 123.308 100.236 125.018 100.139 125.018C100.041 125.018 99.9927 124.724 100.041 124.333C101.165 116.122 100.921 105.566 99.3569 94.8623C99.2097 93.4934 99.0635 92.3209 99.1124 92.2723ZM241.873 92.4192C241.97 92.5164 238.745 97.5993 236.692 100.483C233.76 104.686 229.458 110.258 219.732 122.477C214.602 128.927 208.834 136.21 206.928 138.654C204.972 141.097 203.36 143.149 203.311 143.149C203.262 143.149 202.628 142.27 201.943 141.195C196.469 132.984 189.919 125.8 182.148 119.348C180.682 118.126 179.07 116.807 178.532 116.416C177.995 116.025 177.554 115.634 177.554 115.585C177.554 115.439 185.862 111.87 192.168 109.329C203.214 104.833 218.265 99.4566 229.556 95.9863C235.47 94.1294 241.775 92.321 241.873 92.4192ZM245.636 93.396C245.831 93.3475 247.005 93.934 248.422 94.764C260.299 101.558 271.93 110.306 281.119 119.299C283.709 121.841 290.112 128.488 290.013 128.537C290.013 128.537 287.765 128.732 285.127 128.927C264.551 130.492 238.208 134.841 212.891 140.95C211.18 141.341 209.666 141.683 209.567 141.683C209.471 141.683 211.376 139.777 213.771 137.48C228.629 123.16 235.423 114.119 243.437 97.9899C244.561 95.5957 245.539 93.5429 245.636 93.396C245.588 93.396 245.588 93.396 245.636 93.396ZM136.794 104.54C137.478 104.686 143.832 107.668 148.622 110.062C153.02 112.261 159.619 115.781 159.96 116.073C160.009 116.122 157.663 117.344 154.78 118.762C145.591 123.356 137.723 127.705 129.512 132.69C127.166 134.108 125.211 135.282 125.162 135.282C124.967 135.282 125.015 135.085 126.335 132.69C130.734 124.676 134.252 115.096 136.257 105.761C136.452 105.028 136.647 104.54 136.794 104.54ZM130.44 105.712C130.587 105.859 128.925 111.87 127.899 115.145C125.895 121.352 122.523 129.123 119.249 134.988C118.466 136.356 117.293 138.36 116.658 139.484L115.436 141.439L112.699 138.8C109.523 135.721 106.932 133.815 103.609 132.104C102.289 131.42 101.263 130.833 101.263 130.736C101.263 130.345 109.62 122.77 116.023 117.296C120.616 113.337 130.294 105.566 130.44 105.712ZM169.296 121.695L171.691 123.258C177.163 126.826 183.615 131.567 188.552 135.721C191.337 138.017 196.713 142.857 197.789 144.03L198.375 144.666L194.417 145.789C172.032 151.996 154.731 157.519 134.546 164.948C132.298 165.778 130.391 166.463 130.244 166.463C129.952 166.463 129.707 166.707 134.741 162.064C147.645 150.188 159.08 137.089 167.585 124.333L169.296 121.695ZM159.081 124.236C159.178 124.333 152.483 133.766 148.475 139.093C143.685 145.447 135.181 156.101 129.316 163.041C126.873 165.925 124.772 168.32 124.673 168.369C124.527 168.417 124.478 167.684 124.478 166.56C124.478 160.646 122.963 154.341 120.323 148.966C119.199 146.717 119.004 146.18 119.249 145.936C120.177 145.104 134.399 136.991 143.392 132.153C149.452 128.928 158.933 124.138 159.081 124.236ZM97.3035 139.387C97.4505 139.387 98.5746 139.973 99.8455 140.657C102.973 142.368 105.759 144.274 108.252 146.327C108.349 146.424 107.079 147.451 105.417 148.672C100.774 151.996 93.7362 157.323 89.6315 160.598C85.3295 164.019 85.1839 164.117 85.672 163.384C88.8981 158.448 90.5102 155.662 92.2215 152.094C93.7362 148.918 95.251 145.154 96.3263 141.879C96.7171 140.462 97.2061 139.387 97.3035 139.387ZM113.775 152.289C114.018 152.241 114.312 152.68 115.631 154.636C118.417 158.789 120.568 164.361 121.106 168.858L121.203 169.836L114.508 172.426C102.533 177.069 91.4883 181.663 84.0097 185.084C81.9087 186.062 78.243 187.821 75.8486 188.994C73.4535 190.216 71.4986 191.144 71.4986 191.096C71.4986 191.047 73.0133 189.923 74.8704 188.554C89.4847 177.949 102.143 166.316 111.624 154.684C112.651 153.462 113.58 152.338 113.676 152.289L113.775 152.289ZM106.199 154.147C106.395 154.342 100.823 160.647 97.0112 164.508C87.5785 174.136 78.2434 181.663 66.66 188.994C65.1939 189.923 63.8745 190.753 63.7276 190.852C63.3852 191.047 63.825 190.558 68.9081 185.035C72.1341 181.565 74.5774 178.633 77.3633 175.016C79.2204 172.622 79.5628 172.28 82.2513 170.373C89.4358 165.192 106.004 153.951 106.199 154.147Z" fill="#ADB2FF"/>
</svg>
