<svg width="512" height="512" viewBox="0 0 512 512" fill="none" xmlns="http://www.w3.org/2000/svg">
<path fill-rule="evenodd" clip-rule="evenodd" d="M486.41 370.966C459.727 384.875 321.5 441.708 292.071 457.049C262.645 472.393 246.297 472.245 223.05 461.131C199.803 450.017 52.7046 390.599 26.2077 377.935C12.9631 371.605 6 366.263 6 361.216V310.677C6 310.677 197.502 268.986 228.419 257.896C259.334 246.804 270.061 246.404 296.37 256.041C322.682 265.68 479.997 294.063 506 303.587C506 303.587 505.988 348.725 505.988 353.411C505.992 358.407 499.992 363.888 486.41 370.966" fill="#912626"/>
<path fill-rule="evenodd" clip-rule="evenodd" d="M486.4 320.726C459.719 334.628 321.496 391.464 292.068 406.804C262.643 422.15 246.295 421.999 223.049 410.886C199.801 399.78 52.7092 340.353 26.2132 327.695C-0.282892 315.029 -0.839531 306.312 25.1897 296.12C51.2171 285.925 197.502 228.533 228.422 217.441C259.336 206.353 270.061 205.949 296.369 215.589C322.68 225.226 460.078 279.915 486.078 289.437C512.084 298.97 513.082 306.818 486.4 320.726" fill="#C6302B"/>
<path fill-rule="evenodd" clip-rule="evenodd" d="M486.41 289.192C459.727 303.101 321.5 359.934 292.071 375.281C262.645 390.619 246.297 390.47 223.05 379.357C199.801 368.249 52.7046 308.825 26.2077 296.161C12.9631 289.831 6 284.495 6 279.447V228.903C6 228.903 197.502 187.214 228.419 176.122C259.334 165.032 270.061 164.629 296.37 174.266C322.682 183.905 479.997 212.283 506 221.809C506 221.809 505.988 266.947 505.988 271.639C505.992 276.633 499.992 282.114 486.41 289.192" fill="#912626"/>
<path fill-rule="evenodd" clip-rule="evenodd" d="M486.4 238.951C459.719 252.858 321.496 309.69 292.068 325.035C262.643 340.375 246.295 340.225 223.049 329.111C199.801 318.006 52.7092 258.58 26.2132 245.92C-0.282892 233.258 -0.839531 224.539 25.1897 214.344C51.2171 204.155 197.502 146.758 228.422 135.668C259.336 124.578 270.061 124.176 296.369 133.815C322.68 143.451 460.078 198.137 486.078 207.662C512.084 217.192 513.082 225.043 486.4 238.949V238.951" fill="#C6302B"/>
<path fill-rule="evenodd" clip-rule="evenodd" d="M486.41 204.382C459.727 218.291 321.5 275.126 292.071 290.473C262.645 305.813 246.297 305.663 223.05 294.549C199.801 283.441 52.7046 224.015 26.2077 211.355C12.9631 205.023 6 199.685 6 194.642V144.095C6 144.095 197.502 102.408 228.419 91.318C259.334 80.2258 270.061 79.8254 296.37 89.4625C322.682 99.1014 479.997 127.479 506 137.005C506 137.005 505.988 182.143 505.988 186.833C505.992 191.823 499.992 197.304 486.41 204.382" fill="#912626"/>
<path fill-rule="evenodd" clip-rule="evenodd" d="M486.4 154.144C459.719 168.051 321.496 224.887 292.068 240.228C262.643 255.568 246.295 255.418 223.049 244.308C199.803 233.199 52.7092 173.777 26.2132 161.115C-0.282892 148.453 -0.839531 139.732 25.1897 129.539C51.2171 119.348 197.502 61.957 228.422 50.8632C259.336 39.7714 270.061 39.373 296.369 49.0117C322.68 58.6503 460.078 113.336 486.078 122.861C512.084 132.385 513.082 140.238 486.4 154.144" fill="#C6302B"/>
<path fill-rule="evenodd" clip-rule="evenodd" d="M317.099 104.98L274.113 109.443L264.489 132.598L248.944 106.759L199.307 102.298L236.345 88.9414L225.233 68.4375L259.909 81.9995L292.601 71.296L283.766 92.4976L317.099 104.98" fill="white"/>
<path fill-rule="evenodd" clip-rule="evenodd" d="M261.921 217.319L181.692 184.044L296.656 166.398L261.921 217.319" fill="white"/>
<path fill-rule="evenodd" clip-rule="evenodd" d="M150.691 117.848C184.627 117.848 212.137 128.512 212.137 141.665C212.137 154.821 184.627 165.483 150.691 165.483C116.757 165.483 89.2451 154.821 89.2451 141.665C89.2451 128.512 116.757 117.848 150.691 117.848" fill="white"/>
<path fill-rule="evenodd" clip-rule="evenodd" d="M367.904 111.309L435.943 138.196L367.962 165.057L367.904 111.309" fill="#621B1C"/>
<path fill-rule="evenodd" clip-rule="evenodd" d="M292.631 141.084L367.904 111.309L367.962 165.057L360.582 167.944L292.631 141.084" fill="#9A2928"/>
</svg>
