<svg xmlns="http://www.w3.org/2000/svg" width="570.286" height="108.264" viewBox="0 0 570.286 108.264">
  <g id="Group_1" data-name="Group 1" transform="translate(-155.714 -1754.65)">
    <path id="Path_53" data-name="Path 53" d="M239.843,522H214.849A29.5,29.5,0,0,1,216,530.168v.6c0,15.267-11.543,27.639-25.78,27.639H166.586a2.825,2.825,0,0,1-2.712-2.909V543.115H139.45v34.207a7.045,7.045,0,0,0,6.784,7.273h43.985c27.724,0,50.2-24.1,50.2-53.824v-.6a58.393,58.393,0,0,0-.575-8.177Z" transform="translate(113.373 1278.32)" fill="#7031fa"/>
    <path id="Path_54" data-name="Path 54" d="M239.843,522H214.849A29.5,29.5,0,0,1,216,530.168v.6c0,15.267-11.543,27.639-25.78,27.639H166.586a2.825,2.825,0,0,1-2.712-2.909V543.115H139.45v34.207a7.045,7.045,0,0,0,6.784,7.273h43.985c27.724,0,50.2-24.1,50.2-53.824v-.6a58.393,58.393,0,0,0-.575-8.177Z" transform="translate(113.373 1278.32)" fill="#7031fa"/>
    <path id="Path_55" data-name="Path 55" d="M239.843,522H214.849A29.5,29.5,0,0,1,216,530.168v.6c0,15.267-11.543,27.639-25.78,27.639H166.586a2.825,2.825,0,0,1-2.712-2.909V543.115H139.45v34.207a7.045,7.045,0,0,0,6.784,7.273h43.985c27.724,0,50.2-24.1,50.2-53.824v-.6a58.393,58.393,0,0,0-.575-8.177Z" transform="translate(113.373 1278.32)" fill="#7031fa"/>
    <path id="Path_47" data-name="Path 47" d="M163.874,454.108a2.825,2.825,0,0,1,2.712-2.909h23.633a25.091,25.091,0,0,1,19.773,9.91H237.63C230.78,440.1,212.147,425,190.218,425H146.234a7.03,7.03,0,0,0-6.784,7.273V466.48h24.424Z" transform="translate(113.373 1329.65)" fill="#7031fa"/>
    <path id="Path_48" data-name="Path 48" d="M163.874,454.108a2.825,2.825,0,0,1,2.712-2.909h23.633a25.091,25.091,0,0,1,19.773,9.91H237.63C230.78,440.1,212.147,425,190.218,425H146.234a7.03,7.03,0,0,0-6.784,7.273V466.48h24.424Z" transform="translate(113.373 1329.65)" fill="#7031fa"/>
    <path id="Path_49" data-name="Path 49" d="M163.874,454.108a2.825,2.825,0,0,1,2.712-2.909h23.633a25.091,25.091,0,0,1,19.773,9.91H237.63C230.78,440.1,212.147,425,190.218,425H146.234a7.03,7.03,0,0,0-6.784,7.273V466.48h24.424Z" transform="translate(113.373 1329.65)" fill="#7031fa"/>
    <path id="Path_50" data-name="Path 50" d="M183.1,502.409h10.437a4.425,4.425,0,0,0,3.959,2.622,4.792,4.792,0,0,0,0-9.561,4.425,4.425,0,0,0-3.959,2.622h-12.1l-8.14,8.728H139.45v4.317h35.506Zm14.4-3.8a1.648,1.648,0,1,1-1.535,1.643,1.591,1.591,0,0,1,1.535-1.643Z" transform="translate(113.373 1292.355)" fill="#94a5f3"/>
    <path id="Path_51" data-name="Path 51" d="M183.1,502.409h10.437a4.425,4.425,0,0,0,3.959,2.622,4.792,4.792,0,0,0,0-9.561,4.425,4.425,0,0,0-3.959,2.622h-12.1l-8.14,8.728H139.45v4.317h35.506Zm14.4-3.8a1.648,1.648,0,1,1-1.535,1.643,1.591,1.591,0,0,1,1.535-1.643Z" transform="translate(113.373 1292.355)" fill="#94a5f3"/>
    <path id="Path_52" data-name="Path 52" d="M183.1,502.409h10.437a4.425,4.425,0,0,0,3.959,2.622,4.792,4.792,0,0,0,0-9.561,4.425,4.425,0,0,0-3.959,2.622h-12.1l-8.14,8.728H139.45v4.317h35.506Zm14.4-3.8a1.648,1.648,0,1,1-1.535,1.643,1.591,1.591,0,0,1,1.535-1.643Z" transform="translate(113.373 1292.355)" fill="#94a5f3"/>
    <path id="Path_56" data-name="Path 56" d="M181.429,547.184h21.025a4.421,4.421,0,0,0,3.959,2.622,4.792,4.792,0,0,0,0-9.561,4.421,4.421,0,0,0-3.959,2.622H183.1l-6.953-7.457H139.45v4.322h35.026Zm24.984-3.8a1.648,1.648,0,1,1-1.535,1.648A1.6,1.6,0,0,1,206.413,543.38Z" transform="translate(113.373 1271.218)" fill="#94a5f3"/>
    <path id="Path_57" data-name="Path 57" d="M181.429,547.184h21.025a4.421,4.421,0,0,0,3.959,2.622,4.792,4.792,0,0,0,0-9.561,4.421,4.421,0,0,0-3.959,2.622H183.1l-6.953-7.457H139.45v4.322h35.026Zm24.984-3.8a1.648,1.648,0,1,1-1.535,1.648A1.6,1.6,0,0,1,206.413,543.38Z" transform="translate(113.373 1271.218)" fill="#94a5f3"/>
    <path id="Path_58" data-name="Path 58" d="M181.429,547.184h21.025a4.421,4.421,0,0,0,3.959,2.622,4.792,4.792,0,0,0,0-9.561,4.421,4.421,0,0,0-3.959,2.622H183.1l-6.953-7.457H139.45v4.322h35.026Zm24.984-3.8a1.648,1.648,0,1,1-1.535,1.648A1.6,1.6,0,0,1,206.413,543.38Z" transform="translate(113.373 1271.218)" fill="#94a5f3"/>
    <path id="Path_59" data-name="Path 59" d="M175.309,564.335H193.5a4.068,4.068,0,0,0,3.573,2.26,4.429,4.429,0,0,0,0-8.836,4.067,4.067,0,0,0-3.573,2.26H176.98l-8.144-8.728H139.45v4.317h27.719Zm21.759-3.677a1.521,1.521,0,1,1-1.412,1.516,1.469,1.469,0,0,1,1.412-1.535Z" transform="translate(113.373 1262.814)" fill="#94a5f3"/>
    <path id="Path_60" data-name="Path 60" d="M175.309,564.335H193.5a4.068,4.068,0,0,0,3.573,2.26,4.429,4.429,0,0,0,0-8.836,4.067,4.067,0,0,0-3.573,2.26H176.98l-8.144-8.728H139.45v4.317h27.719Zm21.759-3.677a1.521,1.521,0,1,1-1.412,1.516,1.469,1.469,0,0,1,1.412-1.535Z" transform="translate(113.373 1262.814)" fill="#94a5f3"/>
    <path id="Path_61" data-name="Path 61" d="M175.309,564.335H193.5a4.068,4.068,0,0,0,3.573,2.26,4.429,4.429,0,0,0,0-8.836,4.067,4.067,0,0,0-3.573,2.26H176.98l-8.144-8.728H139.45v4.317h27.719Zm21.759-3.677a1.521,1.521,0,1,1-1.412,1.516,1.469,1.469,0,0,1,1.412-1.535Z" transform="translate(113.373 1262.814)" fill="#94a5f3"/>
    <path id="Path_44" data-name="Path 44" d="M427.38,597a8.39,8.39,0,0,1-2.34-6.21v-72H400.76q-8,0-8-7.07t8-7.07h65.77q8,0,8,7.07t-8,7.07H442.25v72a8,8,0,0,1-8.54,8.54,8.57,8.57,0,0,1-6.33-2.33Z" transform="translate(-237.047 1255.525)" fill="#000054"/>
    <path id="Path_45" data-name="Path 45" d="M427.38,597a8.39,8.39,0,0,1-2.34-6.21v-72H400.76q-8,0-8-7.07t8-7.07h65.77q8,0,8,7.07t-8,7.07H442.25v72a8,8,0,0,1-8.54,8.54,8.57,8.57,0,0,1-6.33-2.33Z" transform="translate(-237.047 1255.525)" fill="#000054"/>
    <path id="Path_46" data-name="Path 46" d="M427.38,597a8.39,8.39,0,0,1-2.34-6.21v-72H400.76q-8,0-8-7.07t8-7.07h65.77q8,0,8,7.07t-8,7.07H442.25v72a8,8,0,0,1-8.54,8.54,8.57,8.57,0,0,1-6.33-2.33Z" transform="translate(-237.047 1255.525)" fill="#000054"/>
    <path id="Path_62" data-name="Path 62" d="M603.48,594a39.1,39.1,0,0,1-15.68-16.8q-5.46-10.94-5.46-25.61T587.8,526a39.129,39.129,0,0,1,15.68-16.74q10.21-5.87,23.82-5.87a51.729,51.729,0,0,1,16.54,2.6,42.87,42.87,0,0,1,13.74,7.54,7.751,7.751,0,0,1,2.4,2.8,8.6,8.6,0,0,1,.67,3.6,7.71,7.71,0,0,1-1.6,4.94,4.83,4.83,0,0,1-3.87,2,9.829,9.829,0,0,1-5.47-1.87A39.818,39.818,0,0,0,639,519.1a34,34,0,0,0-10.93-1.66q-13.89,0-21,8.67t-7.14,25.48q0,16.95,7.14,25.61t21,8.68a31.3,31.3,0,0,0,10.6-1.74,50.385,50.385,0,0,0,11-5.87,18.438,18.438,0,0,1,2.67-1.33,7.381,7.381,0,0,1,2.8-.54,4.83,4.83,0,0,1,3.87,2,7.73,7.73,0,0,1,1.6,4.94,8.7,8.7,0,0,1-.67,3.54,7.6,7.6,0,0,1-2.4,2.87,42.849,42.849,0,0,1-13.74,7.53,51.449,51.449,0,0,1-16.54,2.6Q613.68,599.88,603.48,594Z" transform="translate(-214.55 1254.993)" fill="#000054"/>
    <path id="Path_63" data-name="Path 63" d="M603.48,594a39.1,39.1,0,0,1-15.68-16.8q-5.46-10.94-5.46-25.61T587.8,526a39.129,39.129,0,0,1,15.68-16.74q10.21-5.87,23.82-5.87a51.729,51.729,0,0,1,16.54,2.6,42.87,42.87,0,0,1,13.74,7.54,7.751,7.751,0,0,1,2.4,2.8,8.6,8.6,0,0,1,.67,3.6,7.71,7.71,0,0,1-1.6,4.94,4.83,4.83,0,0,1-3.87,2,9.829,9.829,0,0,1-5.47-1.87A39.818,39.818,0,0,0,639,519.1a34,34,0,0,0-10.93-1.66q-13.89,0-21,8.67t-7.14,25.48q0,16.95,7.14,25.61t21,8.68a31.3,31.3,0,0,0,10.6-1.74,50.385,50.385,0,0,0,11-5.87,18.438,18.438,0,0,1,2.67-1.33,7.381,7.381,0,0,1,2.8-.54,4.83,4.83,0,0,1,3.87,2,7.73,7.73,0,0,1,1.6,4.94,8.7,8.7,0,0,1-.67,3.54,7.6,7.6,0,0,1-2.4,2.87,42.849,42.849,0,0,1-13.74,7.53,51.449,51.449,0,0,1-16.54,2.6Q613.68,599.88,603.48,594Z" transform="translate(-214.55 1254.993)" fill="#000054"/>
    <path id="Path_64" data-name="Path 64" d="M603.48,594a39.1,39.1,0,0,1-15.68-16.8q-5.46-10.94-5.46-25.61T587.8,526a39.129,39.129,0,0,1,15.68-16.74q10.21-5.87,23.82-5.87a51.729,51.729,0,0,1,16.54,2.6,42.87,42.87,0,0,1,13.74,7.54,7.751,7.751,0,0,1,2.4,2.8,8.6,8.6,0,0,1,.67,3.6,7.71,7.71,0,0,1-1.6,4.94,4.83,4.83,0,0,1-3.87,2,9.829,9.829,0,0,1-5.47-1.87A39.818,39.818,0,0,0,639,519.1a34,34,0,0,0-10.93-1.66q-13.89,0-21,8.67t-7.14,25.48q0,16.95,7.14,25.61t21,8.68a31.3,31.3,0,0,0,10.6-1.74,50.385,50.385,0,0,0,11-5.87,18.438,18.438,0,0,1,2.67-1.33,7.381,7.381,0,0,1,2.8-.54,4.83,4.83,0,0,1,3.87,2,7.73,7.73,0,0,1,1.6,4.94,8.7,8.7,0,0,1-.67,3.54,7.6,7.6,0,0,1-2.4,2.87,42.849,42.849,0,0,1-13.74,7.53,51.449,51.449,0,0,1-16.54,2.6Q613.68,599.88,603.48,594Z" transform="translate(-214.55 1254.993)" fill="#000054"/>
    <path id="Path_65" data-name="Path 65" d="M752.57,592.55a6.29,6.29,0,0,1-2.47,5.07,9,9,0,0,1-5.8,2,8.7,8.7,0,0,1-7.34-4l-17.75-27a17.24,17.24,0,0,0-5.67-6,15.54,15.54,0,0,0-7.8-1.73H692.67v29.88a8.71,8.71,0,0,1-2.27,6.34,8.16,8.16,0,0,1-6.14,2.33,8.35,8.35,0,0,1-6.2-2.33,8.55,8.55,0,0,1-2.34-6.34v-78a8,8,0,0,1,2.2-6,8.37,8.37,0,0,1,6.07-2.13h33.36q16,0,24.34,7.14t8.31,20.6q0,10.93-6.2,17.94t-17.54,9a16.851,16.851,0,0,1,6.8,3.33,29.429,29.429,0,0,1,5.74,6.67L751,587.88A8.49,8.49,0,0,1,752.57,592.55Zm-23.35-48.5q4.53-3.66,4.54-11.27t-4.54-11.28Q724.69,518,715,518H692.53v29.75H715q9.69-.03,14.22-3.7Z" transform="translate(-214.55 1254.993)" fill="#000054"/>
    <path id="Path_66" data-name="Path 66" d="M752.57,592.55a6.29,6.29,0,0,1-2.47,5.07,9,9,0,0,1-5.8,2,8.7,8.7,0,0,1-7.34-4l-17.75-27a17.24,17.24,0,0,0-5.67-6,15.54,15.54,0,0,0-7.8-1.73H692.67v29.88a8.71,8.71,0,0,1-2.27,6.34,8.16,8.16,0,0,1-6.14,2.33,8.35,8.35,0,0,1-6.2-2.33,8.55,8.55,0,0,1-2.34-6.34v-78a8,8,0,0,1,2.2-6,8.37,8.37,0,0,1,6.07-2.13h33.36q16,0,24.34,7.14t8.31,20.6q0,10.93-6.2,17.94t-17.54,9a16.851,16.851,0,0,1,6.8,3.33,29.429,29.429,0,0,1,5.74,6.67L751,587.88A8.49,8.49,0,0,1,752.57,592.55Zm-23.35-48.5q4.53-3.66,4.54-11.27t-4.54-11.28Q724.69,518,715,518H692.53v29.75H715q9.69-.03,14.22-3.7Z" transform="translate(-214.55 1254.993)" fill="#000054"/>
    <path id="Path_67" data-name="Path 67" d="M752.57,592.55a6.29,6.29,0,0,1-2.47,5.07,9,9,0,0,1-5.8,2,8.7,8.7,0,0,1-7.34-4l-17.75-27a17.24,17.24,0,0,0-5.67-6,15.54,15.54,0,0,0-7.8-1.73H692.67v29.88a8.71,8.71,0,0,1-2.27,6.34,8.16,8.16,0,0,1-6.14,2.33,8.35,8.35,0,0,1-6.2-2.33,8.55,8.55,0,0,1-2.34-6.34v-78a8,8,0,0,1,2.2-6,8.37,8.37,0,0,1,6.07-2.13h33.36q16,0,24.34,7.14t8.31,20.6q0,10.93-6.2,17.94t-17.54,9a16.851,16.851,0,0,1,6.8,3.33,29.429,29.429,0,0,1,5.74,6.67L751,587.88A8.49,8.49,0,0,1,752.57,592.55Zm-23.35-48.5q4.53-3.66,4.54-11.27t-4.54-11.28Q724.69,518,715,518H692.53v29.75H715q9.69-.03,14.22-3.7Z" transform="translate(-214.55 1254.993)" fill="#000054"/>
    <path id="Path_68" data-name="Path 68" d="M777.92,589.88q-10-10-10-29.22V512.5a8.47,8.47,0,0,1,2.27-6.2,9.21,9.21,0,0,1,12.27,0,8.51,8.51,0,0,1,2.27,6.2v49.1q0,12.14,5.74,18.34t16.81,6.2q10.93,0,16.67-6.27t5.74-18.27V512.5a8.47,8.47,0,0,1,2.27-6.2,9.21,9.21,0,0,1,12.27,0,8.509,8.509,0,0,1,2.27,6.2v48.16q0,19.08-10,29.15t-29.21,10.07Q787.92,599.88,777.92,589.88Z" transform="translate(-214.55 1254.993)" fill="#000054"/>
    <path id="Path_69" data-name="Path 69" d="M777.92,589.88q-10-10-10-29.22V512.5a8.47,8.47,0,0,1,2.27-6.2,9.21,9.21,0,0,1,12.27,0,8.51,8.51,0,0,1,2.27,6.2v49.1q0,12.14,5.74,18.34t16.81,6.2q10.93,0,16.67-6.27t5.74-18.27V512.5a8.47,8.47,0,0,1,2.27-6.2,9.21,9.21,0,0,1,12.27,0,8.509,8.509,0,0,1,2.27,6.2v48.16q0,19.08-10,29.15t-29.21,10.07Q787.92,599.88,777.92,589.88Z" transform="translate(-214.55 1254.993)" fill="#000054"/>
    <path id="Path_70" data-name="Path 70" d="M777.92,589.88q-10-10-10-29.22V512.5a8.47,8.47,0,0,1,2.27-6.2,9.21,9.21,0,0,1,12.27,0,8.51,8.51,0,0,1,2.27,6.2v49.1q0,12.14,5.74,18.34t16.81,6.2q10.93,0,16.67-6.27t5.74-18.27V512.5a8.47,8.47,0,0,1,2.27-6.2,9.21,9.21,0,0,1,12.27,0,8.509,8.509,0,0,1,2.27,6.2v48.16q0,19.08-10,29.15t-29.21,10.07Q787.92,599.88,777.92,589.88Z" transform="translate(-214.55 1254.993)" fill="#000054"/>
    <path id="Path_71" data-name="Path 71" d="M940.55,591.48a7.6,7.6,0,0,1-2.47,5.6,7.88,7.88,0,0,1-5.67,2.4,7.55,7.55,0,0,1-5.87-2.93l-27.09-33.62-27.21,33.62a7.32,7.32,0,0,1-5.74,2.8,8.05,8.05,0,0,1-5.67-2.33,7.38,7.38,0,0,1-2.47-5.54,7.83,7.83,0,0,1,2-5.07l29.09-35.49-27.88-34a7.13,7.13,0,0,1-2-5.07A7.42,7.42,0,0,1,862,506.3a7.76,7.76,0,0,1,5.6-2.34,7.58,7.58,0,0,1,5.87,2.94l26,32.15,26-32.15a7.2,7.2,0,0,1,5.74-2.94,8,8,0,0,1,5.67,2.34,7.36,7.36,0,0,1,2.46,5.53,7.12,7.12,0,0,1-2,5.07l-27.88,34,28.95,35.49a7.92,7.92,0,0,1,2.14,5.09Z" transform="translate(-214.55 1254.993)" fill="#000054"/>
    <path id="Path_72" data-name="Path 72" d="M940.55,591.48a7.6,7.6,0,0,1-2.47,5.6,7.88,7.88,0,0,1-5.67,2.4,7.55,7.55,0,0,1-5.87-2.93l-27.09-33.62-27.21,33.62a7.32,7.32,0,0,1-5.74,2.8,8.05,8.05,0,0,1-5.67-2.33,7.38,7.38,0,0,1-2.47-5.54,7.83,7.83,0,0,1,2-5.07l29.09-35.49-27.88-34a7.13,7.13,0,0,1-2-5.07A7.42,7.42,0,0,1,862,506.3a7.76,7.76,0,0,1,5.6-2.34,7.58,7.58,0,0,1,5.87,2.94l26,32.15,26-32.15a7.2,7.2,0,0,1,5.74-2.94,8,8,0,0,1,5.67,2.34,7.36,7.36,0,0,1,2.46,5.53,7.12,7.12,0,0,1-2,5.07l-27.88,34,28.95,35.49a7.92,7.92,0,0,1,2.14,5.09Z" transform="translate(-214.55 1254.993)" fill="#000054"/>
    <path id="Path_73" data-name="Path 73" d="M940.55,591.48a7.6,7.6,0,0,1-2.47,5.6,7.88,7.88,0,0,1-5.67,2.4,7.55,7.55,0,0,1-5.87-2.93l-27.09-33.62-27.21,33.62a7.32,7.32,0,0,1-5.74,2.8,8.05,8.05,0,0,1-5.67-2.33,7.38,7.38,0,0,1-2.47-5.54,7.83,7.83,0,0,1,2-5.07l29.09-35.49-27.88-34a7.13,7.13,0,0,1-2-5.07A7.42,7.42,0,0,1,862,506.3a7.76,7.76,0,0,1,5.6-2.34,7.58,7.58,0,0,1,5.87,2.94l26,32.15,26-32.15a7.2,7.2,0,0,1,5.74-2.94,8,8,0,0,1,5.67,2.34,7.36,7.36,0,0,1,2.46,5.53,7.12,7.12,0,0,1-2,5.07l-27.88,34,28.95,35.49a7.92,7.92,0,0,1,2.14,5.09Z" transform="translate(-214.55 1254.993)" fill="#000054"/>
  </g>
</svg>
